<svg id="Layer_1" data-name="Layer 1" xmlns="http://www.w3.org/2000/svg" viewBox="0 0 501.19 28.94"><defs><style>.cls-1{fill:#6dc0a6;}.cls-2{fill:#e73f1e;}.cls-3{fill:#faea27;}.cls-4{fill:#b74c96;}.cls-5{fill:#b4107f;}.cls-6{fill:#73b739;}.cls-7{fill:#2a4093;}.cls-8{fill:#6fc7da;}.cls-9{fill:#e52521;}.cls-10{fill:#fab513;}.cls-11{fill:#458dcb;}.cls-12{fill:#6db647;}.cls-13{fill:#bdcf00;}.cls-14{fill:#e72887;}.cls-15{fill:#f4e600;}</style></defs><title>header</title><polygon class="cls-1" points="50.12 28.94 66.83 0 33.41 0 50.12 28.94"/><polygon class="cls-2" points="16.71 28.94 33.41 0 0 0 16.71 28.94"/><polygon class="cls-3" points="116.94 28.94 133.65 0 100.24 0 116.94 28.94"/><polygon class="cls-4" points="83.53 28.94 100.24 0 66.83 0 83.53 28.94"/><polygon class="cls-5" points="183.77 28.94 200.47 0 167.06 0 183.77 28.94"/><polygon class="cls-6" points="150.36 28.94 167.06 0 133.65 0 150.36 28.94"/><polygon class="cls-7" points="250.59 28.94 267.3 0 233.89 0 250.59 28.94"/><polygon class="cls-8" points="217.18 28.94 233.89 0 200.47 0 217.18 28.94"/><polygon class="cls-9" points="284.01 28.94 300.71 0 267.3 0 284.01 28.94"/><polygon class="cls-10" points="350.83 28.94 367.54 0 334.13 0 350.83 28.94"/><polygon class="cls-11" points="317.42 28.94 334.13 0 300.71 0 317.42 28.94"/><polygon class="cls-12" points="384.24 28.94 400.95 0 367.54 0 384.24 28.94"/><polygon class="cls-13" points="451.07 28.94 467.77 0 434.36 0 451.07 28.94"/><polygon class="cls-14" points="484.48 28.94 501.19 0 467.77 0 484.48 28.94"/><polygon class="cls-15" points="417.66 28.94 434.36 0 400.95 0 417.66 28.94"/></svg>